<?xml version="1.0" encoding="UTF-8" standalone="no"?>
<!-- Created with Inkscape (http://www.inkscape.org/) -->

<svg
   xmlns:dc="http://purl.org/dc/elements/1.1/"
   xmlns:cc="http://creativecommons.org/ns#"
   xmlns:rdf="http://www.w3.org/1999/02/22-rdf-syntax-ns#"
   xmlns:svg="http://www.w3.org/2000/svg"
   xmlns="http://www.w3.org/2000/svg"
   xmlns:sodipodi="http://sodipodi.sourceforge.net/DTD/sodipodi-0.dtd"
   xmlns:inkscape="http://www.inkscape.org/namespaces/inkscape"
   width="744.09448819"
   height="1052.3622047"
   id="svg2"
   version="1.1"
   inkscape:version="0.48.2 r9819"
   sodipodi:docname="New document 1">
  <defs
     id="defs4" />
  <sodipodi:namedview
     id="base"
     pagecolor="#ffffff"
     bordercolor="#666666"
     borderopacity="1.0"
     inkscape:pageopacity="0.0"
     inkscape:pageshadow="2"
     inkscape:zoom="0.90097656"
     inkscape:cx="270.94095"
     inkscape:cy="754.39571"
     inkscape:document-units="px"
     inkscape:current-layer="layer1"
     showgrid="false"
     inkscape:window-width="1437"
     inkscape:window-height="857"
     inkscape:window-x="0"
     inkscape:window-y="0"
     inkscape:window-maximized="0">
    <inkscape:grid
       type="xygrid"
       id="grid3836" />
  </sodipodi:namedview>
  <metadata
     id="metadata7">
    <rdf:RDF>
      <cc:Work
         rdf:about="">
        <dc:format>image/svg+xml</dc:format>
        <dc:type
           rdf:resource="http://purl.org/dc/dcmitype/StillImage" />
        <dc:title></dc:title>
      </cc:Work>
    </rdf:RDF>
  </metadata>
  <g
     inkscape:label="Layer 1"
     inkscape:groupmode="layer"
     id="layer1">
    <g
       id="g4630"
       transform="translate(1020,-150)">
      <path
         inkscape:connector-curvature="0"
         id="path4500"
         d="m -992.0625,162.375 c -2.774,0.28157 -4.9375,2.65155 -4.9375,5.5 l 0,28.5 518,0 0,-28.5 c 0,-3.03835 -2.46165,-5.5 -5.5,-5.5 l -507,0 c -0.1899,0 -0.3776,-0.0188 -0.5625,0 z"
         style="font-size:medium;font-style:normal;font-variant:normal;font-weight:normal;font-stretch:normal;text-indent:0;text-align:start;text-decoration:none;line-height:normal;letter-spacing:normal;word-spacing:normal;text-transform:none;direction:ltr;block-progression:tb;writing-mode:lr-tb;text-anchor:start;baseline-shift:baseline;color:#000000;fill:#ececec;fill-opacity:1;stroke:none;stroke-width:1;marker:none;visibility:visible;display:inline;overflow:visible;enable-background:accumulate;font-family:Sans;-inkscape-font-specification:Sans" />
      <path
         sodipodi:nodetypes="sssssssss"
         inkscape:connector-curvature="0"
         d="m -548.5,169.86218 57,0 c 1.662,0 3,1.338 3,3 l 0,14 c 0,1.662 -1.338,3 -3,3 l -57,0 c -1.662,0 -3,-1.338 -3,-3 l 0,-14 c 0,-1.662 1.338,-3 3,-3 z"
         style="fill:#d8d8d8;fill-opacity:1;stroke:#c2c2c2;stroke-width:1;stroke-linecap:round;stroke-linejoin:round;stroke-miterlimit:4;stroke-opacity:1;stroke-dashoffset:0"
         id="rect4596" />
      <path
         inkscape:connector-curvature="0"
         id="path3846"
         d="m -997,197.375 0,258.5 c 0,3.03835 2.4616,5.5 5.5,5.5 l 507,0 c 3.03835,0 5.5,-2.46165 5.5,-5.5 l 0,-258.5 -518,0 z"
         style="font-size:medium;font-style:normal;font-variant:normal;font-weight:normal;font-stretch:normal;text-indent:0;text-align:start;text-decoration:none;line-height:normal;letter-spacing:normal;word-spacing:normal;text-transform:none;direction:ltr;block-progression:tb;writing-mode:lr-tb;text-anchor:start;baseline-shift:baseline;color:#000000;fill:#ffffff;fill-opacity:1;stroke:none;stroke-width:1;marker:none;visibility:visible;display:inline;overflow:visible;enable-background:accumulate;font-family:Sans;-inkscape-font-specification:Sans" />
      <path
         sodipodi:nodetypes="csscccccc"
         inkscape:connector-curvature="0"
         id="rect4600"
         d="m -997,197.375 0,258.5 c 0,3.03835 2.4616,5.5 5.5,5.5 l 61.5,0 0,-225.01282 -7,-7 7,-7 0,-24.98718 z"
         style="fill:#fcfcfc;fill-opacity:1;stroke:none" />
      <path
         sodipodi:nodetypes="csssccssssscsssccssccccccsscccssccccc"
         inkscape:connector-curvature="0"
         id="rect3066"
         d="m -992.0625,162.375 c -2.774,0.28157 -4.9375,2.65155 -4.9375,5.5 l 0,288 c 0,3.03835 2.4616,5.5 5.5,5.5 l 61.5,0 1,0 444.5,0 c 3.03835,0 5.5,-2.46165 5.5,-5.5 l 0,-288 c 0,-3.03835 -2.46165,-5.5 -5.5,-5.5 l -507,0 c -0.1899,0 -0.3776,-0.0188 -0.5625,0 z m 0.5625,1 507,0 c 2.50165,0 4.5,1.99835 4.5,4.5 l 0,28.5 -516,0 0,-28.5 c 0,-2.50165 1.9983,-4.5 4.5,-4.5 z m -4.5,34 66,0 0,24 -8.0312,8 8.0312,8 0,223 -61.5,0 c -2.5017,0 -4.5,-1.99835 -4.5,-4.5 z m 67,0 449,0 0,258.5 c 0,2.50165 -1.99835,4.5 -4.5,4.5 l -444.5,0 0,-223.59375 -7.4375,-7.40625 7.4375,-7.40625 z"
         style="font-size:medium;font-style:normal;font-variant:normal;font-weight:normal;font-stretch:normal;text-indent:0;text-align:start;text-decoration:none;line-height:normal;letter-spacing:normal;word-spacing:normal;text-transform:none;direction:ltr;block-progression:tb;writing-mode:lr-tb;text-anchor:start;baseline-shift:baseline;color:#000000;fill:#c2c2c2;fill-opacity:1;stroke:none;stroke-width:1;marker:none;visibility:visible;display:inline;overflow:visible;enable-background:accumulate;font-family:Sans;-inkscape-font-specification:Sans" />
      <path
         inkscape:connector-curvature="0"
         d="m -982,174.375 c -3.3137,0 -6,2.68629 -6,6 0,3.31371 2.6863,6 6,6 3.3137,0 6,-2.68629 6,-6 0,-3.31371 -2.6863,-6 -6,-6 z m 20,0 c -3.3137,0 -6,2.68629 -6,6 0,3.31371 2.6863,6 6,6 3.3137,0 6,-2.68629 6,-6 0,-3.31371 -2.6863,-6 -6,-6 z m 20,0 c -3.3137,0 -6,2.68629 -6,6 0,3.31371 2.6863,6 6,6 3.3137,0 6,-2.68629 6,-6 0,-3.31371 -2.6863,-6 -6,-6 z"
         style="fill:#d8d8d8;fill-opacity:1;stroke:#c2c2c2;stroke-width:0;stroke-linecap:round;stroke-linejoin:round;stroke-miterlimit:4;stroke-opacity:1;stroke-dasharray:none;stroke-dashoffset:0"
         id="path4508" />
      <path
         inkscape:connector-curvature="0"
         d="m -942,174.375 c -3.3137,0 -6,2.68629 -6,6 0,3.31371 2.6863,6 6,6 3.3137,0 6,-2.68629 6,-6 0,-3.31371 -2.6863,-6 -6,-6 z m -0.5,1 c 0.1681,-0.0171 0.3274,0 0.5,0 2.7614,0 5,2.23858 5,5 0,2.76142 -2.2386,5 -5,5 -2.7614,0 -5,-2.23858 -5,-5 0,-2.58883 1.9787,-4.74395 4.5,-5 z m -19.5,-1 c -3.3137,0 -6,2.68629 -6,6 0,3.31371 2.6863,6 6,6 3.3137,0 6,-2.68629 6,-6 0,-3.31371 -2.6863,-6 -6,-6 z m -0.5,1 c 0.1681,-0.0171 0.3274,0 0.5,0 2.7614,0 5,2.23858 5,5 0,2.76142 -2.2386,5 -5,5 -2.7614,0 -5,-2.23858 -5,-5 0,-2.58883 1.9787,-4.74395 4.5,-5 z m -19.5,-1 c -3.3137,0 -6,2.68629 -6,6 0,3.31371 2.6863,6 6,6 3.3137,0 6,-2.68629 6,-6 0,-3.31371 -2.6863,-6 -6,-6 z m -0.5,1 c 0.1681,-0.0171 0.3274,0 0.5,0 2.7614,0 5,2.23858 5,5 0,2.76142 -2.2386,5 -5,5 -2.7614,0 -5,-2.23858 -5,-5 0,-2.58883 1.9787,-4.74395 4.5,-5 z"
         style="fill:#c2c2c2;fill-opacity:1;stroke:#c2c2c2;stroke-width:0;stroke-linecap:round;stroke-linejoin:round;stroke-miterlimit:4;stroke-opacity:1;stroke-dasharray:none;stroke-dashoffset:0"
         id="path3855" />
      <text
         sodipodi:linespacing="125%"
         id="text4592"
         y="185.22546"
         x="-544.8587"
         style="font-size:16.43045235px;font-style:normal;font-variant:normal;font-weight:normal;font-stretch:normal;line-height:125%;letter-spacing:0px;word-spacing:0px;fill:#a5a5a5;fill-opacity:1;stroke:none;font-family:Lato;-inkscape-font-specification:Lato"
         xml:space="preserve"><tspan
           style="font-size:14px;font-style:normal;font-variant:normal;font-weight:normal;font-stretch:normal;fill:#a5a5a5;fill-opacity:1;font-family:Open Sans;-inkscape-font-specification:Open Sans"
           y="185.22546"
           x="-544.8587"
           id="tspan4594"
           sodipodi:role="line">Publish</tspan></text>
      <text
         xml:space="preserve"
         style="font-size:16.43045235px;font-style:normal;font-variant:normal;font-weight:normal;font-stretch:normal;line-height:125%;letter-spacing:0px;word-spacing:0px;fill:#a5a5a5;fill-opacity:1;stroke:none;font-family:Lato;-inkscape-font-specification:Lato"
         x="-922.85858"
         y="185.22546"
         id="text4626"
         sodipodi:linespacing="125%"><tspan
           sodipodi:role="line"
           id="tspan4628"
           x="-922.85858"
           y="185.22546"
           style="font-size:14px;font-style:normal;font-variant:normal;font-weight:normal;font-stretch:normal;fill:#a5a5a5;fill-opacity:1;font-family:Open Sans;-inkscape-font-specification:Open Sans">Projects / Dan's Deli / Settings</tspan></text>
    </g>
  </g>
</svg>
